<?xml version="1.0" encoding="UTF-8"?> <svg xmlns="http://www.w3.org/2000/svg" xmlns:xlink="http://www.w3.org/1999/xlink" width="371px" height="249px" viewBox="0 0 371 249"><!-- Generator: Sketch 51.3 (57544) - http://www.bohemiancoding.com/sketch --><title> Automated Cyber Attacks: The Next Big Threat.</title><desc>Created with Sketch.</desc><defs></defs><g id="-Automated-Cyber-Attacks:-The-Next-Big-Threat." stroke="none" stroke-width="1" fill="none" fill-rule="evenodd"><g id="Group-Copy-3" transform="translate(6.000000, 39.000000)"><path d="M0,163.50071 C0,158.253795 80.5894447,154 180,154 C279.41203,154 360,158.253795 360,163.50071 C360,168.747626 279.41203,173 180,173 C80.5894447,173 0,168.747626 0,163.50071 Z" id="Fill-4" fill="#004B80"></path><path d="M298.927406,149 L127.074065,149 C125.37737,149 124,147.618122 124,145.914052 L124,22.0859482 C124,20.3818781 125.37737,19 127.074065,19 L298.927406,19 C300.624102,19 302,20.3818781 302,22.0859482 L302,145.914052 C302,147.618122 300.624102,149 298.927406,149" id="Fill-5" fill="#FFFFFE"></path><polygon id="Fill-6" fill="#002D61" points="132 135 296 135 296 26 132 26"></polygon><path d="M315.996367,164.078947 C316.040686,164.533241 315.675796,165 315.104086,165 L111.897378,165 C111.325668,165 110.959301,164.533241 111.00362,164.078947 L111.00362,159 L315.996367,159 L315.996367,164.078947 Z" id="Fill-7" fill="#37A1F7"></path><path d="M315.101615,161 L111.899147,161 C111.07037,161 110.684789,159.955799 111.308219,159.403693 L123.897943,148.225043 C124.061926,148.079515 124.271705,148 124.488871,148 L302.510413,148 C302.729057,148 302.938836,148.079515 303.102819,148.225043 L315.691066,159.403693 C316.315973,159.955799 315.928915,161 315.101615,161" id="Fill-8" fill="#E5E6E3"></path><path d="M252.663569,158 L176.33751,158 C176.0267,158 175.881656,157.679803 176.115503,157.509852 L180.845736,154.068966 L181.067743,154 L247.933337,154 L248.155344,154.068966 L252.884096,157.509852 C253.117944,157.679803 252.974379,158 252.663569,158" id="Fill-9" fill="#91CFF9"></path><path d="M226.009203,143 L206.990797,143 C205.892528,143 205,142.123939 205,141.044143 L205,138.957313 C205,137.877516 205.892528,137 206.990797,137 L226.009203,137 C227.108952,137 228,137.877516 228,138.957313 L228,141.044143 C228,142.123939 227.108952,143 226.009203,143" id="Fill-10" fill="#37A1F7"></path><polyline id="Fill-11" fill="#FFFFFE" points="232 109.147843 173.923015 126 154 55.8521571 212.076985 39 232 109.147843"></polyline><polyline id="Fill-12" fill="#C8D2E2" points="163.79939 78 158 57.7990563 178.20061 52 184 72.2009437 163.79939 78"></polyline><polyline id="Fill-13" fill="#37A1F7" points="182 71.0930752 164.906925 76 160 58.9069248 177.091586 54 182 71.0930752"></polyline><path d="M170,66.8920628 C170,66.8920628 170.124939,66.3100913 170.892421,66.003278 C171.113467,65.915617 170.925372,67.6152658 170.925372,67.6152658 L170.697462,68 L170,66.8920628" id="Fill-14" fill="#48475E"></path><path d="M175,65.0823975 C175,65.0823975 174.476006,64.8669848 173.079549,65.1327538 C172.676873,65.2096869 173.933943,65.9356559 173.933943,65.9356559 L174.512143,66 L175,65.0823975" id="Fill-15" fill="#48475E"></path><polyline id="Fill-16" fill="#F9E0D1" points="170 65.2288 170.784446 67.6784 173.376162 70 174 66.8 173.15131 64 170 65.2288"></polyline><path d="M170.33,66 L170,65.007732 L170.018,65 L170.366,65.9871134 C170.354,65.992268 170.342,65.9948454 170.33,66" id="Fill-17" fill="#7876AA"></path><path d="M170.132,66.315 C170.114,66.306 170.096,66.297 170.081,66.285 L170,66.015 C170.012,66.009 170.024,66.006 170.036,66 L170.132,66.315" id="Fill-18" fill="#5F5E87"></path><path d="M173.489,66 L173,65.0240964 L173.111,65 L173.498,65.9982788 C173.495,65.9982788 173.492,65.9982788 173.489,66" id="Fill-19" fill="#7876AA"></path><path d="M173,65.003 C173.003,65 173.006,65 173.009,65 L173.042,65.153 L173,65.003 Z" id="Fill-20" fill="#5F5E87"></path><path d="M171.632117,67 C171.267153,67 170.817518,66.8541267 170.216058,66.5662188 L170.169343,66.4318618 L170,65.9417786 L172.724088,65 L172.962044,65.7255278 L172.982482,65.7895074 L173,65.8586052 C172.579562,66.6263596 172.214599,67 171.632117,67" id="Fill-21" fill="#B9ADC3"></path><path d="M168,62.1846606 C168,62.1846606 168.408806,63.1149147 168.925896,63.9976282 C169.444203,64.8816266 170.440667,65.0949169 170.868939,64.9651439 C171.38968,64.8071035 171.961521,63.9475178 171.994371,63.0493858 C172.027222,62.1499688 171.905554,61 171.905554,61 L168,62.1846606" id="Fill-22" fill="#F9E0D1"></path><path d="M173,62.3923073 C173.728703,61.6817351 174.028879,62.0422205 173.997827,62.6366747 C173.964704,63.231129 173.774247,64.1600721 173.391264,63.9763632 C173.008281,63.7926543 173,62.3923073 173,62.3923073" id="Fill-23" fill="#F9E0D1"></path><path d="M169.137591,64.1029274 C167.833171,63.7723702 167.800244,64.2938704 168.294151,64.874912 C168.788057,65.4539004 169.704951,66.2874795 169.960769,65.9014872 C170.216587,65.5154949 169.137591,64.1029274 169.137591,64.1029274" id="Fill-24" fill="#F9E0D1"></path><path d="M168.604203,62.7636732 C171.596361,62.9542581 173.567002,62.3008241 173.567002,62.3008241 C173.567002,62.3008241 172.453791,62.5371989 171.493405,62.1263275 C171.493405,62.1263275 173.151961,62.2364707 173.610437,62.1399407 L173.940218,63.0235617 C173.940218,63.0235617 174.091434,61.8156988 173.91287,61.3355238 C173.732697,60.8565864 172.928354,59.9135623 171.273015,60.0063796 C169.619284,60.0979594 168.420813,60.7996584 168.216509,61.4469046 C168.216509,61.4469046 167.574643,61.8949029 168.501247,63.2723121 C168.501247,63.2723121 169.049809,63.4925986 169.517937,64 L168.604203,62.7636732" id="Fill-25" fill="#48475E"></path><path d="M173.740958,66 L175.797413,66.4467468 C176.460963,66.590344 177.023061,67.0515955 177.321932,67.6941567 L179,71.3203481 L173.472247,73 C173.472247,73 172.332971,70.0743887 172.002567,68.8588893 C171.953212,68.6746788 172.631843,67.79569 172.631843,67.79569 L173.141844,66.7339412 L173.740958,66" id="Fill-26" fill="#48475E"></path><path d="M169.221369,67 L167.685521,68.437014 C167.189281,68.9010498 166.941161,69.5637636 167.011855,70.2319207 L167.411064,74 L173,72.4241835 C173,72.4241835 172.13366,69.4657854 171.800985,68.3254277 C171.751084,68.152605 171.082962,67.8437014 171.082962,67.8437014 L170.10573,67.2680793 L169.221369,67" id="Fill-27" fill="#48475E"></path><path d="M170,66 C170.785226,66.7253385 171.797538,67.0019342 171.797538,67.0019342 C171.797538,67.0019342 171.874145,67.2746615 172,68 C170.820793,67.8143133 170.162791,66.8007737 170.162791,66.8007737 L170,66" id="Fill-28" fill="#FFFFFE"></path><polyline id="Fill-29" fill="#3B3C3A" points="169 72 169.450751 75 170 74.8594918 169 72"></polyline><path d="M174.753396,65 C174.151515,65.7534827 173,66.3761357 173,66.3761357 C173,66.3761357 173.058516,66.555421 173.3093,67 C174.728318,66.3482738 175,65.5003028 175,65.5003028 L174.753396,65" id="Fill-30" fill="#FFFFFE"></path><polyline id="Fill-31" fill="#3B3C3A" points="176 70 178 71.9029928 177.212919 72 176 70"></polyline><polyline id="Fill-32" fill="#FFFFFE" points="172.795 69.282 172.51 69.792 172 69.51 172.285 69 172.795 69.282"></polyline><polyline id="Fill-33" fill="#FFFFFE" points="173.792 70.285 173.51 70.792 173 70.51 173.282 70 173.792 70.285"></polyline><polyline id="Fill-34" fill="#FFFFFE" points="173.792 72.282 173.51 72.792 173 72.51 173.282 72 173.792 72.282"></polyline><path d="M207.547804,49.2230597 L182.048676,56.974586 C181.7168,57.0743095 181.369975,56.8716966 181.275794,56.5218728 L181.024645,55.5958686 C180.928969,55.2444618 181.120321,54.8772259 181.452196,54.7775024 L206.952819,47.0259761 C207.2832,46.9246697 207.630025,47.1288655 207.724206,47.4786893 L207.975355,48.4046936 C208.071031,48.7561003 207.879679,49.1217533 207.547804,49.2230597" id="Fill-35" fill="#C8D2E2"></path><path d="M200.228951,55.0972239 L183.360676,59.9588161 C182.794122,60.1202275 182.203961,59.7929622 182.041667,59.2258011 C181.879373,58.6571592 182.205436,58.0648239 182.771991,57.9019317 L199.641741,53.0418203 C200.20682,52.8789281 200.796981,53.2061934 200.9578,53.7748353 C201.121569,54.3434772 200.79403,54.9343317 200.228951,55.0972239" id="Fill-36" fill="#C8D2E2"></path><path d="M195.574249,65.0827249 L185.989556,67.9762012 C185.675235,68.0695869 185.349637,67.8798508 185.259428,67.5522595 L185.02263,66.685106 C184.933831,66.3560323 185.114248,66.0121356 185.425751,65.9187498 L195.011853,63.0237912 C195.324765,62.9304055 195.650363,63.1201416 195.740572,63.4492153 L195.97737,64.3163687 C196.066169,64.6454424 195.885752,64.9878568 195.574249,65.0827249" id="Fill-37" fill="#C8D2E2"></path><path d="M205.552213,74.1004416 L168.03845,84.9760064 C167.70981,85.0701865 167.366367,84.8788364 167.273105,84.5469635 L167.024404,83.6724335 C166.929661,83.3405606 167.119147,82.9952334 167.447787,82.8995584 L204.963031,72.0239936 C205.29167,71.9298135 205.633633,72.1211636 205.728376,72.4530365 L205.975596,73.3275665 C206.070339,73.6579444 205.880853,74.0047666 205.552213,74.1004416" id="Fill-38" fill="#ACB9D0"></path><path d="M206.235588,82.0516145 L171.349774,91.9592137 C170.787714,92.1184998 170.203698,91.7970314 170.041227,91.242426 C169.88022,90.6878205 170.205161,90.1085981 170.765758,89.949312 L205.651572,80.0402647 C206.212169,79.8824266 206.797649,80.202447 206.958656,80.7585005 C207.119663,81.3131059 206.796185,81.8923283 206.235588,82.0516145" id="Fill-39" fill="#ACB9D0"></path><path d="M194.546151,90.1391828 L171.052504,96.974891 C170.720444,97.0723699 170.371856,96.8774121 170.275693,96.5392821 L170.02477,95.648264 C169.928608,95.3101341 170.120932,94.9582961 170.454495,94.8608172 L193.94664,88.025109 C194.280202,87.9276301 194.627288,88.1225879 194.723451,88.4607179 L194.975876,89.351736 C195.070536,89.6898659 194.878212,90.0417039 194.546151,90.1391828" id="Fill-40" fill="#ACB9D0"></path><path d="M212.230538,96.1281084 L175.354647,106.957676 C174.792026,107.122967 174.204433,106.78938 174.041376,106.213866 C173.879788,105.636851 174.205902,105.035792 174.768523,104.870501 L211.645882,94.0424362 C212.208503,93.8771452 212.796096,94.2092299 212.959153,94.7862458 C213.119273,95.3617591 212.794627,95.9628174 212.230538,96.1281084" id="Fill-41" fill="#C8D2E2"></path><path d="M210.235578,101.050828 L175.349266,110.959103 C174.788661,111.1184 174.203173,110.798358 174.0407,110.242266 C173.881155,109.687623 174.204637,109.108361 174.766706,108.949064 L209.653017,99.0407891 C210.212158,98.8814921 210.79911,99.2029824 210.958655,99.7576257 C211.119665,100.312269 210.796182,100.891531 210.235578,101.050828" id="Fill-42" fill="#C8D2E2"></path><path d="M200.545517,109.138559 L177.05398,115.975555 C176.720425,116.071507 176.371846,115.876556 176.277189,115.538438 L176.024769,114.647451 C175.928609,114.310855 176.120929,113.957506 176.454483,113.861554 L199.94602,107.024558 C200.279575,106.928606 200.628154,107.122034 200.722811,107.461675 L200.975231,108.352662 C201.071391,108.689258 200.879071,109.042607 200.545517,109.138559" id="Fill-43" fill="#C8D2E2"></path><path d="M70.4524152,41 C73.2454891,45.6314533 71.6828893,48.2036616 70.2402644,49.3862861 C70.2402644,49.3862861 64.013275,48.911758 62.3980033,48.4934046 C62.3980033,48.4934046 62.1258651,53.0391176 61.4908761,54 L57.5434096,51.5238799 C57.5434096,51.5238799 56.321714,48.4032295 57.5419465,45.9078917 C58.7621789,43.4110757 61.1280252,41.6859222 63.5260599,41.6460086 C65.9226315,41.6060951 68.8210493,43.8368206 70.2300227,41.0266091 L70.4524152,41" id="Fill-44" fill="#EE512B"></path><path d="M69.8254397,50.0274523 C69.8254397,50.0274523 69.2517912,52.7843991 70.3753606,54.1056244 C71.5003257,55.4253432 72,55.3967191 72,55.3967191 C72,55.3967191 70.5205174,56.9665216 70.0934214,58.5453632 C69.6663255,60.1242049 68.2384852,61.4198192 65.9634317,61.2827251 C63.6869824,61.1471376 63.3882944,60.609307 63.3882944,60.609307 L61.2918954,67 C61.2918954,67 57.6811203,63.2487446 57,61.407767 L58.6637201,55.5187479 C58.6637201,55.5187479 56.7724946,52.6111483 58.5408951,51.8247405 C60.3078999,51.0383328 61.4789244,54.7293271 61.4789244,54.7293271 L62.1698148,49 L69.8254397,50.0274523" id="Fill-45" fill="#DBAE8A"></path><path d="M62.720401,61 C60.6575454,60.92 57,57.3216 57,57.3216 L57.4974262,55 C58.502032,57.3568 63,60.4064 63,60.4064 L62.720401,61" id="Fill-46" fill="#B88963"></path><path d="M93,155.444425 L93.9513815,162.743035 C93.9513815,162.743035 105.743315,164.66109 109.046442,164.98763 C112.349569,165.31564 106.26015,159.014301 103.105722,158.709825 C99.9512928,158.405348 97.0870425,154 97.0870425,154 L93,155.444425" id="Fill-47" fill="#091D3C"></path><path d="M64.941092,66 L53,61.5357607 C53.4597701,61.1027308 53.9181034,60.6514954 54.4181034,60.1989597 C54.9770115,60.0728218 55.5560345,60 56.1350575,60 C57.8721264,60 59.5689655,60.5968791 60.8864943,61.716515 L65,65.2418726 L64.941092,66" id="Fill-48" fill="#091D3C"></path><path d="M65.6202127,76 C59.6028624,75.845519 51.7078436,72.9677139 47,71.0199797 C47.9920045,69.0069495 49.2164388,67.0146228 50.7158391,65 C54.7051251,67.2805849 62.7292716,70.0246127 66,71.1091646 L65.6202127,76" id="Fill-49" fill="#091D3C"></path><path d="M65,80.1427706 L64.5268605,85.8789718 C60.5613603,86.2158599 53.8220798,86.0049255 44,83.2005604 C44.1034993,81.0502437 44.3903401,79.0031179 44.9048793,77 C53.0413997,80.6481026 60.6441597,80.6283749 65,80.1427706" id="Fill-50" fill="#091D3C"></path><path d="M68,97.855789 C59.0562765,98.5188932 49.0453287,96.7234349 45.2709269,95.9541725 L44.4502122,91.8263108 C44.2450335,90.5231805 44.1018513,89.2400509 44,88 C53.2094225,90.7354969 61.8667815,91.7632313 66.2360539,92.1263232 L68,97.855789" id="Fill-51" fill="#091D3C"></path><path d="M72,107 L51.2046135,103.89727 C49.8100659,105.241687 47.4988017,104.393052 47.3115638,102.490323 L47,101 C54.4101258,102.572208 64.4430797,102.2 70.3343319,101.786104 L72,107" id="Fill-52" fill="#091D3C"></path><path d="M219.525032,46.6676943 C218.464112,48.7988725 215.964109,49.6204753 213.951157,48.4964229 L212.788707,47.8478713 L213.265459,46.8890749 L214.427909,47.5391856 C215.942037,48.3841736 217.822557,47.7668023 218.620086,46.1625723 C219.417615,44.5583423 218.834919,42.5659167 217.320791,41.7209286 L207,35.9587964 L207.47528,35 L217.797542,40.7621323 C219.809022,41.8861846 220.585951,44.534957 219.525032,46.6676943" id="Fill-53" fill="#FBE1C5"></path><polyline id="Fill-54" fill="#DF126F" points="213.816038 48 216 44.1006289 206 44 213.816038 48"></polyline><polyline id="Fill-55" fill="#091D3C" points="87.7540807 78 86 76.5832282 148.244423 0 150 1.41826316 87.7540807 78"></polyline><polyline id="Fill-56" fill="#AE8058" points="86.8725017 90 80 85.244558 82.1274983 83 89 87.755442 86.8725017 90"></polyline><polyline id="Fill-57" fill="#CC4406" points="70.839454 100 66 96.0872788 87.162031 70 92 73.9127212 70.839454 100"></polyline><polyline id="Fill-58" fill="#2F302E" points="147.537754 8 144 4.66386233 144.463559 4 148 7.33613767 147.537754 8"></polyline><polyline id="Fill-59" fill="#2F302E" points="131.537603 30 128 26.6651376 128.461084 26 132 29.3363914 131.537603 30"></polyline><polyline id="Fill-60" fill="#2F302E" points="111.537603 53 108 49.6651376 108.462397 49 112 52.3363914 111.537603 53"></polyline><path d="M97.7770386,96 L97,95.3333955 C120.472795,68.610612 112.518529,53.3373106 112.43697,53.1864089 L112.122595,52.6164987 L112.757276,52.4509463 C130.482358,47.8462474 132.343395,28.7154302 132.359707,28.5220416 L132.392331,28.1499151 L132.761572,28.0678715 C139.014954,26.6951057 144.611411,22.9254937 147.365153,18.2299608 C149.387826,14.7855932 149.838627,10.9998656 148.670104,7.28299598 L148.547023,6.89621885 L148.902919,6.6940399 C149.114973,6.57097445 154.198348,3.70530754 158.908033,5.7095163 C162.031016,7.03833015 164.196047,10.1706389 165.351225,15.0243988 C167.035797,22.1109177 171.236848,27.8363912 177.186235,31.1415776 C184.353082,35.1280192 193.511461,35.508936 203.679694,32.2315859 L204,33.1999938 C193.5515,36.5579225 184.102472,36.1579598 176.680567,32.030872 C170.477604,28.5806442 166.097123,22.6236904 164.347303,15.2558791 C163.272202,10.7361539 161.305879,7.83972064 158.503201,6.64422769 C154.927934,5.12495541 150.964147,6.80831496 149.776346,7.38848065 C150.875173,11.2533218 150.353193,15.1679752 148.256375,18.7412684 C145.372138,23.6580262 139.814236,27.4657298 133.342868,28.9806069 C132.98549,31.7129529 130.119048,48.6080811 113.611425,53.2757779 C114.92379,56.3582744 119.455527,71.3224471 97.7770386,96" id="Fill-61" fill="#F1F0ED"></path><path d="M202.343288,32.6092487 C201.563359,34.080368 202.121264,35.9022926 203.585766,36.668972 C205.050267,37.4356515 206.876268,36.8627637 207.654774,35.3902299 C208.436126,33.9191107 207.879644,32.0986006 206.415143,31.3319212 C204.950641,30.5652417 203.123217,31.1381295 202.343288,32.6092487 Z M208.531482,35.8499547 C207.493949,37.8048458 205.065923,38.5672816 203.12037,37.5473999 C201.171971,36.5275182 200.431893,34.1058297 201.469426,32.1509385 C202.504112,30.1946329 204.932139,29.432197 206.880538,30.4534933 C208.827514,31.4719604 209.567592,33.893649 208.531482,35.8499547 Z" id="Fill-62" fill="#FBE1C5"></path><path d="M96.4401647,97.4052496 C94.0061618,100.41015 89.5987238,100.872213 86.5953461,98.4396747 C83.590478,96.0071362 83.1269294,91.5996508 85.5609322,88.5947504 C87.9934445,85.58985 92.4023731,85.1277869 95.4057507,87.5603253 C98.4091284,89.9943543 98.872677,94.4018397 96.4401647,97.4052496" id="Fill-63" fill="#091D3C"></path><path d="M210,44.0542323 C209.469236,45.6225724 209.313211,48 209.313211,48 L204,44 L210,44.0542323" id="Fill-64" fill="#FFFFFE"></path><path d="M203.791489,34.9547735 C201.145686,35.2278005 199.041335,34.2137001 198.330472,33.2821079 C197.99165,32.838064 197.911927,32.3070114 198.097947,31.7444557 C198.634416,30.1287958 199.863477,29.9622793 200.551087,30.0057836 C202.067482,30.1062935 203.685192,31.363418 203.831351,32.2650072 C203.899448,32.6700473 203.901108,33.0165816 203.479242,33.162096 L203.098897,32.5425347 C203.098897,32.2965103 201.884784,31.0873907 200.72548,30.8803702 C199.855172,30.7243547 199.295451,31.0888908 198.99483,31.9889799 C198.888532,32.3070114 198.923411,32.5680372 199.101127,32.8035605 C199.466523,33.2821079 201.502779,34.5467331 203.857925,34.11169 C204.085468,34.0681857 204.022354,34.9307711 203.791489,34.9547735" id="Fill-65" fill="#F1F0ED"></path><path d="M92.521424,95.2505719 C92.521424,95.2505719 88.268977,96.8727001 87.3937058,95.3439418 C86.5184346,93.8151836 85.1870733,91.2454205 86.6581616,90.5597787 C88.1292499,89.8741369 88.8832486,89.8100322 89.1310663,90.4134527 C89.3788841,91.0182668 88.2663406,91.3931401 88.2663406,91.3931401 C88.2663406,91.3931401 91.6039711,90.2685203 92.5807421,91.6634947 C93.5575131,93.0584692 92.521424,95.2505719 92.521424,95.2505719" id="Fill-66" fill="#DBAE8A"></path><polyline id="Fill-67" fill="#091D3C" points="70.2783655 50.3713935 57 49 57.3165318 50.4278699 71 53 70.2783655 50.3713935"></polyline><polyline id="Fill-68" fill="#F9E0D1" points="67.8736264 51.5571142 65 51 68 53 67.8736264 51.5571142"></polyline><path d="M56.5084152,146 L48,150.025134 C48,150.025134 58.2913736,158.573027 61.0895236,160.616791 C63.8876735,162.660555 63.7407182,156.022508 59.7924176,152.671527 C57.2671847,150.528846 60.2122901,148.028546 60.2122901,148.028546 L56.5084152,146" id="Fill-69" fill="#091D3C"></path><path d="M75.9421388,117.29636 L56,147.36496 L59.2685552,151 L90,121.92264 C90,121.92264 86.7299811,113 85.7492681,113 C84.7685552,113 75.9421388,117.29636 75.9421388,117.29636" id="Fill-70" fill="#091D3C"></path><path d="M49.3346572,103 L88.9877977,105.13001 C91.6935169,105.276144 93.8949817,107.350062 94.1820646,110.024753 L99,155 L93.0188582,155 L83.8842669,117.086409 C83.8842669,117.086409 69.7636553,117.417055 58.6343584,116.922562 C47.5050615,116.428069 48.003366,103.075281 48.003366,103.075281 L49.3346572,103" id="Fill-71" fill="#091D3C"></path><polygon id="Fill-72" fill="#C5C5C5" points="47 165 53 165 53 116 47 116"></polygon><polygon id="Fill-73" fill="#C5C5C5" points="74 165 80 165 80 116 74 116"></polygon><polygon id="Fill-74" fill="#28BDED" points="45 122 81 122 81 116 45 116"></polygon><polygon id="Fill-75" fill="#9B9B9B" points="47 126 53 126 53 122 47 122"></polygon><polygon id="Fill-76" fill="#9B9B9B" points="74 126 80 126 80 122 74 122"></polygon><path d="M66,66.006806 L65.6547873,70 C62.5187415,69.006806 54.8250146,66.4939232 51,64.4054448 C51.8695863,63.2912008 52.8411342,62.1550802 53.8942513,61 L66,66.006806" id="Fill-77" fill="#FFFFFE"></path><path d="M66,74.9908004 L65.6415708,79.7597519 C61.1672814,80.270483 53.3577783,80.2912315 45,76.4543642 C45.5482751,74.2598165 46.3289217,72.1067657 47.3844652,70 C52.0911261,71.9519504 59.9841614,74.835985 66,74.9908004" id="Fill-78" fill="#FFFFFE"></path><path d="M67,92 C62.5128351,91.6292223 53.6218816,90.5797329 44.1639687,87.7863315 C43.9941841,85.7769049 43.9517379,83.8554595 44.0578533,82 C54.1282036,84.9033778 61.0378312,85.1217596 65.1035664,84.7729772 L65.0414131,85.624509 L67,92" id="Fill-79" fill="#FFFFFE"></path><path d="M69,101 C65.6279322,100.433407 63.0137135,99.2531273 61,97.6902134 C61.9743775,97.7314202 62.9603031,97.7534952 63.9447853,97.7534952 C65.2872609,97.7534952 66.6311801,97.7108168 67.9505594,97.6151582 L67.9159148,97.5018396 L68.0631541,97.6239882 L69,101 M67.2850956,95.5018396 L66.2255503,92.1346578 L65.2468423,89 L65.9902562,90.1537896 L67.4251173,95.3252391 L67.2850956,95.5018396" id="Fill-80" fill="#344F57"></path><path d="M63.9528439,98 C62.9581915,98 61.9620807,97.9776643 60.9776373,97.9359711 C58.5493437,96.0463731 56.9829849,93.6043395 56,91 C60.281964,91.7400553 63.9003403,92.1227398 66.2571706,92.3148266 L67.3276616,95.7217613 L66.6101118,96.6256116 L67.9649976,97.7453733 L68,97.8600298 C66.6669908,97.9568177 65.3091881,98 63.9528439,98" id="Fill-81" fill="#091D3C"></path><path d="M61.0461538,86.057 C61.0307692,86.057 61.0153846,86.057 61,86.057 C61.0153846,86.057 61.0307692,86.057 61.0461538,86.057 M61.0480769,86.057 C61.7365385,86.057 62.3884615,86.036 63,86 C62.3884615,86.036 61.7365385,86.057 61.0480769,86.057" id="Fill-82" fill="#344F57"></path><path d="M61.4237675,85 C61.4113562,85 61.3989449,85 61.3865337,85 C59.3867663,84.9985149 56.9867351,84.8648515 54.1724775,84.5039604 C53.9568315,82.5405941 53.9661399,80.6529703 54.07629,79 C55.903851,79.2732673 57.6321216,79.4158416 59.2176626,79.4663366 L63,84.9717822 C62.5066516,84.989604 61.9807237,85 61.4253189,85 L61.4237675,85" id="Fill-83" fill="#091D3C"></path><polyline id="Fill-84" fill="#846548" points="68 97 67.8021339 96.893726 66 95.9308579 66.9544132 95.1536492 67.14258 95 68 97"></polyline><path d="M58,80 C56.7664454,79.9513475 55.4218467,79.8139757 54,79.5506797 C54.1726011,76.2995469 54.6710923,74 54.6710923,74 L58,80" id="Fill-85" fill="#878984"></path><path d="M65,92 C62.7648686,91.8139679 59.3333333,91.4433457 55.2724758,90.7266172 C54.5795297,88.8518747 54.1908714,86.8906057 54,85 C56.5089903,85.3504326 58.648686,85.4802225 60.4315353,85.4816646 C60.4426003,85.4816646 60.4536653,85.4816646 60.4647303,85.4816646 L60.4661134,85.4816646 C60.9612725,85.4816646 61.4301521,85.4715698 61.8699862,85.4542645 L64.0622407,88.9283066 L65,92" id="Fill-86" fill="#878984"></path><path d="M54.2921343,74.2869547 L61.8801237,94.6219534 C62.442197,96.1263283 63.9360495,97.0897211 65.5591488,96.9933819 L88,95.6668641 L86.4896159,90.4526858 L68.0283638,88.3287753 L63.8984778,71.6605977 C63.4506226,69.8538657 61.9612786,68.4828837 60.1037316,68.1657051 L59.5446641,68.0693658 C56.8004239,67.6010087 54.2410367,69.5589193 54.0156063,72.296437 C53.9600001,72.9722941 54.053178,73.6511155 54.2921343,74.2869547" id="Fill-87" fill="#091D3C"></path><path d="M69,100.664594 C63.2144039,101.050091 53.3613852,101.396761 46.0841557,99.9324257 L45,95 C48.7614465,95.6933407 58.7380325,97.3115979 67.6510573,96.7139382 L69,100.664594" id="Fill-88" fill="#FFFFFE"></path><path d="M57,78.3716793 C62.9835584,77.6981485 65.771286,75 65.771286,75 L67,79.3457498 C67,79.3457498 60.769818,82.3430963 58.3931298,81.9674217 L57,78.3716793" id="Fill-89" fill="#FFFFFE"></path><path d="M67.2004299,83 C67.2004299,83 62.9002328,88.4921169 60,88.170672 L61.6535913,93 C61.6535913,93 65.5196131,92.4581356 68,87.2446043 L67.2004299,83" id="Fill-90" fill="#FFFFFE"></path><path d="M70.945789,88 C70.945789,88 71.1084221,93.4652482 69,96 L72.445789,95.8014184 C72.445789,95.8014184 74.8794773,94.058156 75,88.4751773 L70.945789,88" id="Fill-91" fill="#FFFFFE"></path><path d="M80.1723372,90 C80.1723372,90 81.7294187,93.8331474 80,96 L83.5026775,95.8139639 C83.5026775,95.8139639 84.7271785,93.8706224 83.3333638,90.2087888 L80.1723372,90" id="Fill-92" fill="#FFFFFE"></path><path d="M269.760324,54.6113911 C264.607824,51.4449158 257.850203,53.0911231 254.69963,58.2696297 C254.434099,58.7074189 254.198403,59.166198 254,59.6219785 L255.758772,60.7044573 C255.943748,60.2381818 256.166019,59.7824013 256.436025,59.3356164 C259.003325,55.1151485 264.503402,53.7897867 268.693723,56.3640472 C272.894487,58.9443048 274.217668,64.4631475 271.651861,68.6836153 C271.380362,69.1304002 271.077538,69.5352053 270.747861,69.9130234 L272.517075,71 C272.830342,70.6131863 273.130184,70.1933884 273.397207,69.7555992 C276.544796,64.5770926 274.912823,57.7763672 269.760324,54.6113911" id="Fill-93" fill="#FFFFFE"></path><path d="M278.17521,66 L252.827739,66 C250.161058,66 248,68.161058 248,70.8262646 L248,96.1737354 C248,98.838942 250.161058,101 252.827739,101 L278.17521,101 C280.840416,101 283,98.838942 283,96.1737354 L283,70.8262646 C283,68.161058 280.840416,66 278.17521,66" id="Fill-94" fill="#EE512B"></path><path d="M263.843598,82 L266.159388,82 C266.62374,82 267,82.394081 267,82.8785047 L267,92.1214953 C267,92.6074766 266.62374,93 266.159388,93 L263.843598,93 C263.377753,93 263,92.6074766 263,92.1214953 L263,82.8785047 C263,82.394081 263.377753,82 263.843598,82" id="Fill-95" fill="#FF8300"></path><path d="M262,82.0007041 C262,79.7912339 263.790919,78 266,78 C268.209081,78 270,79.7912339 270,82.0007041 C270,84.2101743 268.209081,86 266,86 C263.790919,86 262,84.2101743 262,82.0007041" id="Fill-96" fill="#FF8300"></path><path d="M263.843598,80 L266.159388,80 C266.62374,80 267,80.3925234 267,80.8785047 L267,90.1214953 C267,90.605919 266.62374,91 266.159388,91 L263.843598,91 C263.377753,91 263,90.605919 263,90.1214953 L263,80.8785047 C263,80.3925234 263.377753,80 263.843598,80" id="Fill-97" fill="#2F302E"></path><path d="M262,81 C262,78.7909187 263.790919,77 266,77 C268.209081,77 270,78.7909187 270,81 C270,83.2090813 268.209081,85 266,85 C263.790919,85 262,83.2090813 262,81" id="Fill-98" fill="#2F302E"></path></g></g></svg> 