<svg height="464pt" viewBox="-64 0 464 464" width="464pt" xmlns="http://www.w3.org/2000/svg"><path d="m336 400h-336l24-400h296zm0 0" fill="#cfdfe8"/><path d="m256 200c0 48.601562-39.398438 88-88 88s-88-39.398438-88-88 39.398438-88 88-88 88 39.398438 88 88zm0 0" fill="#aabece"/><path d="m0 400h336v64h-336zm0 0" fill="#5a6470"/><path d="m280 424h32v16h-32zm0 0" fill="#fff"/><path d="m248 424h16v16h-16zm0 0" fill="#fff"/><path d="m230.222656 137.777344-62.222656 62.222656 62.222656 62.222656c34.367188-34.363281 34.367188-90.082031 0-124.445312zm0 0" fill="#5a6470"/><path d="m200 200c0 17.671875-14.328125 32-32 32s-32-14.328125-32-32 14.328125-32 32-32 32 14.328125 32 32zm0 0" fill="#fff"/><path d="m24 424h16v16h-16zm0 0" fill="#fff"/><path d="m56 424h16v16h-16zm0 0" fill="#fff"/><g fill="#5a6470"><path d="m48 26.785156h16v16h-16zm0 0"/><path d="m280 26.785156h16v16h-16zm0 0"/><path d="m24 360h16v16h-16zm0 0"/><path d="m296 360h16v16h-16zm0 0"/></g></svg>