<svg xmlns="http://www.w3.org/2000/svg" viewBox="0 0 52 52"><title>modem-router</title><g id="modem-router"><g id="modem-router-2" data-name="modem-router"><rect x="39" y="46" width="6" height="4" fill="#d7d4d4"/><rect x="7" y="46" width="6" height="4" fill="#d7d4d4"/><path d="M16,35V17.11a2,2,0,1,0-4,0V35" fill="#40495a"/><path d="M4.48,33h43A2.56,2.56,0,0,1,50,35.63v8.75A2.56,2.56,0,0,1,47.52,47h-43A2.56,2.56,0,0,1,2,44.38V35.63A2.56,2.56,0,0,1,4.48,33Z" fill="#eae8e8"/><rect x="6.5" y="38.5" width="3" height="3" fill="#ff6e40"/><rect x="12.5" y="38.5" width="3" height="3" fill="#ffcd02"/><rect x="18.5" y="38.5" width="3" height="3" fill="#6ac6d7"/><rect x="24.5" y="38.5" width="3" height="3" fill="#2ecc71"/><rect x="36" y="39" width="2" height="2" fill="#d7d4d4"/><rect x="40" y="39" width="2" height="2" fill="#d7d4d4"/><rect x="44" y="39" width="2" height="2" fill="#d7d4d4"/><path d="M19.88,16H17.73a3.23,3.23,0,0,0-3.23-3.23V10.62A5.39,5.39,0,0,1,19.88,16Z" fill="#2ecc71"/><path d="M24.19,16H22A7.55,7.55,0,0,0,14.5,8.46V6.31A9.7,9.7,0,0,1,24.19,16Z" fill="#2ecc71"/><path d="M28.5,16H26.35A11.86,11.86,0,0,0,14.5,4.15V2A14,14,0,0,1,28.5,16Z" fill="#eae8e8"/></g></g></svg>