<svg height="464pt" viewBox="0 0 464 464" width="464pt" xmlns="http://www.w3.org/2000/svg"><path d="m344 328h-120c-4.417969 0-8-3.582031-8-8s3.582031-8 8-8h120c4.417969 0 8 3.582031 8 8s-3.582031 8-8 8zm0 0" fill="#e9686a"/><path d="m360 208h16v88h-16zm0 0" fill="#e9686a"/><path d="m128 264c-4.417969 0-8-3.582031-8-8v-128c0-4.417969 3.582031-8 8-8s8 3.582031 8 8v128c0 4.417969-3.582031 8-8 8zm0 0" fill="#e9686a"/><path d="m240 112h-88c-4.417969 0-8-3.582031-8-8s3.582031-8 8-8h88c4.417969 0 8 3.582031 8 8s-3.582031 8-8 8zm0 0" fill="#e9686a"/><path d="m400 320c0 17.671875-14.328125 32-32 32s-32-14.328125-32-32 14.328125-32 32-32 32 14.328125 32 32zm0 0" fill="#fdbd40"/><path d="m160 104c0 17.671875-14.328125 32-32 32s-32-14.328125-32-32 14.328125-32 32-32 32 14.328125 32 32zm0 0" fill="#fdbd40"/><path d="m48 256h176v128h-176zm0 0" fill="#cfdfe8"/><path d="m240 0h176v128h-176zm0 0" fill="#cfdfe8"/><path d="m272 432h-272l48-48h176zm0 0" fill="#aabece"/><path d="m0 432h272v32h-272zm0 0" fill="#5a6470"/><path d="m464 176h-272l48-48h176zm0 0" fill="#aabece"/><g fill="#5a6470"><path d="m192 176h272v32h-272zm0 0"/><path d="m80 288h16v16h-16zm0 0"/><path d="m304 40h16v16h-16zm0 0"/><path d="m336 24h16v16h-16zm0 0"/><path d="m112 304h16v16h-16zm0 0"/></g></svg>