<?xml version="1.0" ?><svg height="32" id="svg4050" version="1.1" viewBox="0 0 32 32.000001" width="32" xmlns="http://www.w3.org/2000/svg" xmlns:cc="http://creativecommons.org/ns#" xmlns:dc="http://purl.org/dc/elements/1.1/" xmlns:inkscape="http://www.inkscape.org/namespaces/inkscape" xmlns:rdf="http://www.w3.org/1999/02/22-rdf-syntax-ns#" xmlns:sodipodi="http://sodipodi.sourceforge.net/DTD/sodipodi-0.dtd" xmlns:svg="http://www.w3.org/2000/svg"><defs id="defs4052"/><g id="layer1" transform="translate(0,-1020.3622)"><path d="M 15.460938 2 A 0.50004994 0.50004994 0 0 0 15 2.5 L 15 9 L 9.0234375 9 L 9 9 A 0.50004994 0.50004994 0 0 0 8.9726562 9.0019531 A 0.50004994 0.50004994 0 0 0 8.9257812 9.0058594 A 0.50004994 0.50004994 0 0 0 8.8886719 9.0136719 A 0.50004994 0.50004994 0 0 0 8.8652344 9.0175781 A 0.50004994 0.50004994 0 0 0 8.8515625 9.0214844 A 0.50004994 0.50004994 0 0 0 8.8261719 9.03125 A 0.50004994 0.50004994 0 0 0 8.7871094 9.0488281 A 0.50004994 0.50004994 0 0 0 8.7734375 9.0546875 A 0.50004994 0.50004994 0 0 0 8.7402344 9.0722656 A 0.50004994 0.50004994 0 0 0 8.734375 9.0761719 A 0.50004994 0.50004994 0 0 0 8.6953125 9.1035156 A 0.50004994 0.50004994 0 0 0 8.6621094 9.1308594 A 0.50004994 0.50004994 0 0 0 8.6601562 9.1328125 L 8.65625 9.1367188 A 0.50004994 0.50004994 0 0 0 8.6386719 9.1523438 L 2.1601562 15.132812 A 0.50004994 0.50004994 0 0 0 2.5 16 L 9 16 L 9 22 A 0.50004994 0.50004994 0 0 0 9.0019531 22.027344 A 0.50004994 0.50004994 0 0 0 9.0058594 22.068359 A 0.50004994 0.50004994 0 0 0 9.0078125 22.087891 A 0.50004994 0.50004994 0 0 0 9.0097656 22.097656 A 0.50004994 0.50004994 0 0 0 9.0175781 22.126953 A 0.50004994 0.50004994 0 0 0 9.0292969 22.167969 A 0.50004994 0.50004994 0 0 0 9.0351562 22.185547 A 0.50004994 0.50004994 0 0 0 9.0410156 22.199219 A 0.50004994 0.50004994 0 0 0 9.0585938 22.232422 A 0.50004994 0.50004994 0 0 0 9.0683594 22.251953 A 0.50004994 0.50004994 0 0 0 9.0761719 22.263672 A 0.50004994 0.50004994 0 0 0 9.0878906 22.28125 A 0.50004994 0.50004994 0 0 0 9.1113281 22.314453 A 0.50004994 0.50004994 0 0 0 9.1230469 22.328125 A 0.50004994 0.50004994 0 0 0 9.1328125 22.339844 L 15.132812 28.839844 A 0.50004994 0.50004994 0 0 0 16 28.5 L 16 22 L 22 22 A 0.50004994 0.50004994 0 0 0 22.339844 21.869141 L 28.839844 15.869141 A 0.50004994 0.50004994 0 0 0 28.5 15 L 22 15 L 22 9.0214844 A 0.50004994 0.50004994 0 0 0 21.998047 8.9726562 A 0.50004994 0.50004994 0 0 0 21.994141 8.921875 A 0.50004994 0.50004994 0 0 0 21.992188 8.9160156 A 0.50004994 0.50004994 0 0 0 21.96875 8.8261719 A 0.50004994 0.50004994 0 0 0 21.960938 8.8046875 A 0.50004994 0.50004994 0 0 0 21.949219 8.7792969 A 0.50004994 0.50004994 0 0 0 21.947266 8.7753906 A 0.50004994 0.50004994 0 0 0 21.923828 8.7363281 A 0.50004994 0.50004994 0 0 0 21.912109 8.7167969 A 0.50004994 0.50004994 0 0 0 21.896484 8.6953125 A 0.50004994 0.50004994 0 0 0 21.882812 8.6777344 A 0.50004994 0.50004994 0 0 0 21.867188 8.6621094 L 21.847656 8.640625 A 0.50004994 0.50004994 0 0 0 21.845703 8.6386719 L 15.867188 2.1621094 A 0.50004994 0.50004994 0 0 0 15.511719 2 A 0.50004994 0.50004994 0 0 0 15.460938 2 z M 16 3.7792969 L 20.820312 9 L 16 14.222656 L 16 3.7792969 z M 10.279297 10 L 15 10 L 15 14.357422 L 10.279297 10 z M 9 10.181641 L 14.21875 15 L 9.5 15 L 3.78125 15 L 9 10.181641 z M 21 10.279297 L 21 15 L 16.642578 15 L 21 10.279297 z M 10 16 L 14.359375 16 L 10 20.722656 L 10 16 z M 16.779297 16 L 21.5 16 L 27.222656 16 L 22 20.820312 L 16.779297 16 z M 16 16.644531 L 20.71875 21 L 16 21 L 16 16.644531 z M 15 16.779297 L 15 21.5 L 15 27.222656 L 10.179688 22 L 15 16.779297 z " id="rect4836" style="color:#000000;font-style:normal;font-variant:normal;font-weight:normal;font-stretch:normal;font-size:medium;line-height:normal;font-family:sans-serif;text-indent:0;text-align:start;text-decoration:none;text-decoration-line:none;text-decoration-style:solid;text-decoration-color:#000000;letter-spacing:normal;word-spacing:normal;text-transform:none;direction:ltr;block-progression:tb;writing-mode:lr-tb;baseline-shift:baseline;text-anchor:start;white-space:normal;clip-rule:nonzero;display:inline;overflow:visible;visibility:visible;opacity:1;isolation:auto;mix-blend-mode:normal;color-interpolation:sRGB;color-interpolation-filters:linearRGB;solid-color:#000000;solid-opacity:1;fill:#000000;fill-opacity:1;fill-rule:nonzero;stroke:none;stroke-width:0.99999988;stroke-linecap:round;stroke-linejoin:round;stroke-miterlimit:4.0999999;stroke-dasharray:none;stroke-dashoffset:0;stroke-opacity:1;color-rendering:auto;image-rendering:auto;shape-rendering:auto;text-rendering:auto;enable-background:accumulate" transform="translate(0,1020.3622)"/></g></svg>