<svg height="464pt" viewBox="0 0 464 464" width="464pt" xmlns="http://www.w3.org/2000/svg"><path d="m32 104h400c17.671875 0 32 14.328125 32 32v192c0 17.671875-14.328125 32-32 32h-400c-17.671875 0-32-14.328125-32-32v-192c0-17.671875 14.328125-32 32-32zm0 0" fill="#5a6470"/><path d="m56 232h352v128h-352zm0 0" fill="#fdbd40"/><path d="m96 0h272v168h-272zm0 0" fill="#cfdfe8"/><path d="m384 464h-304l16-184h272zm0 0" fill="#cfdfe8"/><path d="m0 168h464v64h-464zm0 0" fill="#9fbecc"/><path d="m408 192h16v16h-16zm0 0" fill="#5a6470"/><path d="m376 192h16v16h-16zm0 0" fill="#5a6470"/><g fill="#238892"><path d="m152 312h160v16h-160zm0 0"/><path d="m136 344h192v16h-192zm0 0"/><path d="m120 376h224v16h-224zm0 0"/><path d="m112 416h240v16h-240zm0 0"/></g></svg>