<svg height="464pt" viewBox="0 -128 464 464" width="464pt" xmlns="http://www.w3.org/2000/svg"><path d="m464 40v-40h-464v40c22.089844 0 40 17.910156 40 40s-17.910156 40-40 40v40h464v-40c-22.089844 0-40-17.910156-40-40s17.910156-40 40-40zm0 0" fill="#cfdfe8"/><path d="m80 48h80v64h-80zm0 0" fill="#6facbc"/><path d="m192 48h80v64h-80zm0 0" fill="#6facbc"/><path d="m304 48h80v64h-80zm0 0" fill="#6facbc"/><g fill="#5a6470"><path d="m216 160h32v48h-32zm0 0"/><path d="m280 160h32v48h-32zm0 0"/><path d="m88 160h32v48h-32zm0 0"/><path d="m24 160h32v48h-32zm0 0"/><path d="m152 160h32v48h-32zm0 0"/><path d="m344 160h32v48h-32zm0 0"/><path d="m408 160h32v48h-32zm0 0"/><path d="m112 72h16v16h-16zm0 0"/><path d="m224 72h16v16h-16zm0 0"/><path d="m336 72h16v16h-16zm0 0"/></g></svg>