<svg height="472pt" viewBox="-3 0 471 472" width="472pt" xmlns="http://www.w3.org/2000/svg"><path d="m.5 344h464v128h-464zm0 0" fill="#5a6470"/><path d="m464.5 344h-464l48-96h368zm0 0" fill="#cfdfe8"/><path d="m32.5 392h64v32h-64zm0 0" fill="#fdbd40"/><g fill="#fff"><path d="m224.5 416h-96c-4.417969 0-8-3.582031-8-8s3.582031-8 8-8h96c4.417969 0 8 3.582031 8 8s-3.582031 8-8 8zm0 0"/><path d="m256.5 432c-4.417969 0-8-3.582031-8-8v-32c0-4.417969 3.582031-8 8-8s8 3.582031 8 8v32c0 4.417969-3.582031 8-8 8zm0 0"/><path d="m288.5 432c-4.417969 0-8-3.582031-8-8v-32c0-4.417969 3.582031-8 8-8s8 3.582031 8 8v32c0 4.417969-3.582031 8-8 8zm0 0"/><path d="m320.5 432c-4.417969 0-8-3.582031-8-8v-32c0-4.417969 3.582031-8 8-8s8 3.582031 8 8v32c0 4.417969-3.582031 8-8 8zm0 0"/><path d="m352.5 432c-4.417969 0-8-3.582031-8-8v-32c0-4.417969 3.582031-8 8-8s8 3.582031 8 8v32c0 4.417969-3.582031 8-8 8zm0 0"/><path d="m384.5 432c-4.417969 0-8-3.582031-8-8v-32c0-4.417969 3.582031-8 8-8s8 3.582031 8 8v32c0 4.417969-3.582031 8-8 8zm0 0"/><path d="m416.5 432c-4.417969 0-8-3.582031-8-8v-32c0-4.417969 3.582031-8 8-8s8 3.582031 8 8v32c0 4.417969-3.582031 8-8 8zm0 0"/></g><path d="m64.5 32h32v216h-32zm0 0" fill="#5a6470"/><path d="m368.5 32h32v216h-32zm0 0" fill="#5a6470"/><path d="m112.5 32c0 17.671875-14.328125 32-32 32s-32-14.328125-32-32 14.328125-32 32-32 32 14.328125 32 32zm0 0" fill="#6facbc"/><path d="m416.5 32c0 17.671875-14.328125 32-32 32s-32-14.328125-32-32 14.328125-32 32-32 32 14.328125 32 32zm0 0" fill="#6facbc"/></svg>