<?xml version="1.0" encoding="UTF-8"?>
<!-- Created with Inkscape (http://www.inkscape.org/) -->
<svg width="125" height="125" version="1.1" viewBox="0 0 33.073 33.073" xmlns="http://www.w3.org/2000/svg" xmlns:cc="http://creativecommons.org/ns#" xmlns:dc="http://purl.org/dc/elements/1.1/" xmlns:rdf="http://www.w3.org/1999/02/22-rdf-syntax-ns#">
 <metadata>
  <rdf:RDF>
   <cc:Work rdf:about="">
    <dc:format>image/svg+xml</dc:format>
    <dc:type rdf:resource="http://purl.org/dc/dcmitype/StillImage"/>
    <dc:title/>
   </cc:Work>
  </rdf:RDF>
 </metadata>
 <g transform="translate(0 -263.93)">
  <g>
   <rect x="-6.3578e-7" y="263.93" width="33.073" height="33.073" rx=".39473" ry=".41113" fill="#ececec"/>
   <g fill="#666" stroke-width=".069561" aria-label="Advertise Here">
    <path d="m7.6266 287.51-0.37226 1.0094h0.74588zm-0.15488-0.27036h0.31112l0.77305 2.0284h-0.28531l-0.18477-0.52034h-0.91434l-0.18477 0.52034h-0.28938z"/>
    <path d="m9.7922 287.98v-0.82332h0.24998v2.114h-0.24998v-0.22824q-0.078799 0.13586-0.19972 0.20243-0.11956 0.0652-0.28802 0.0652-0.2758 0-0.4497-0.22009-0.17254-0.2201-0.17254-0.57877t0.17254-0.57877q0.1739-0.22009 0.4497-0.22009 0.16847 0 0.28802 0.0666 0.12092 0.0652 0.19972 0.20108zm-0.85185 0.53121q0 0.2758 0.11276 0.4334 0.11412 0.15624 0.31248 0.15624t0.31248-0.15624q0.11412-0.1576 0.11412-0.4334t-0.11412-0.43204q-0.11412-0.15759-0.31248-0.15759t-0.31248 0.15759q-0.11276 0.15624-0.11276 0.43204z"/>
    <path d="m10.378 287.75h0.26493l0.47551 1.2771 0.47551-1.2771h0.26493l-0.57062 1.5216h-0.33965z"/>
    <path d="m13.505 288.45v0.12227h-1.1494q0.0163 0.25814 0.15488 0.394 0.13994 0.1345 0.38856 0.1345 0.14401 0 0.27852-0.0353 0.13586-0.0353 0.269-0.10598v0.2364q-0.1345 0.0571-0.2758 0.087-0.1413 0.0299-0.28667 0.0299-0.36411 0-0.57741-0.21194-0.21194-0.21194-0.21194-0.57333 0-0.37362 0.20107-0.59236 0.20243-0.22009 0.5448-0.22009 0.30704 0 0.48502 0.19836 0.17934 0.19699 0.17934 0.53665zm-0.24998-0.0734q-0.0027-0.20515-0.11548-0.32742-0.11141-0.12228-0.29618-0.12228-0.20922 0-0.33558 0.1182-0.12499 0.1182-0.14401 0.33286z"/>
    <path d="m14.797 287.98q-0.04212-0.0245-0.09239-0.0353-0.04891-0.0122-0.10869-0.0122-0.21194 0-0.32607 0.13858-0.11276 0.13722-0.11276 0.39535v0.80158h-0.25134v-1.5216h0.25134v0.2364q0.0788-0.13858 0.20515-0.20515 0.12635-0.0679 0.30704-0.0679 0.02581 0 0.05706 4e-3 0.03125 3e-3 0.06929 0.01z"/>
    <path d="m15.309 287.32v0.43203h0.51491v0.19428h-0.51491v0.82604q0 0.18613 0.05027 0.23911 0.05163 0.053 0.20787 0.053h0.25678v0.20922h-0.25678q-0.28938 0-0.39943-0.10733-0.11005-0.10869-0.11005-0.39399v-0.82604h-0.18341v-0.19428h0.18341v-0.43203z"/>
    <path d="m16.155 287.75h0.24998v1.5216h-0.24998zm0-0.59235h0.24998v0.31656h-0.24998z"/>
    <path d="m17.896 287.8v0.23639q-0.10597-0.0543-0.2201-0.0815t-0.2364-0.0272q-0.18613 0-0.27987 0.0571-0.09239 0.0571-0.09239 0.17118 0 0.087 0.06657 0.13722 0.06657 0.0489 0.26764 0.0937l0.08559 0.019q0.26629 0.0571 0.37769 0.16167 0.11276 0.10325 0.11276 0.28938 0 0.21195-0.16847 0.33558-0.16711 0.12363-0.46057 0.12363-0.12228 0-0.25542-0.0245-0.13178-0.0231-0.27852-0.0707v-0.25814q0.13858 0.072 0.27308 0.10869 0.1345 0.0353 0.26629 0.0353 0.17662 0 0.27172-0.0598 0.0951-0.0611 0.0951-0.17119 0-0.10189-0.06929-0.15624-0.06793-0.0543-0.30025-0.10461l-0.08695-0.0204q-0.23232-0.0489-0.33558-0.14944-0.10325-0.1019-0.10325-0.27852 0-0.21466 0.15216-0.3315t0.43204-0.11684q0.13858 0 0.26085 0.0204 0.12227 0.0204 0.22553 0.0611z"/>
    <path d="m19.679 288.45v0.12227h-1.1494q0.0163 0.25814 0.15488 0.394 0.13994 0.1345 0.38856 0.1345 0.14401 0 0.27852-0.0353 0.13586-0.0353 0.269-0.10598v0.2364q-0.1345 0.0571-0.2758 0.087t-0.28667 0.0299q-0.36411 0-0.57741-0.21194-0.21194-0.21194-0.21194-0.57333 0-0.37362 0.20107-0.59236 0.20243-0.22009 0.5448-0.22009 0.30705 0 0.48502 0.19836 0.17934 0.19699 0.17934 0.53665zm-0.24998-0.0734q-0.0027-0.20515-0.11548-0.32742-0.11141-0.12228-0.29618-0.12228-0.20923 0-0.33558 0.1182-0.12499 0.1182-0.14401 0.33286z"/>
    <path d="m20.986 287.24h0.27444v0.83147h0.99722v-0.83147h0.27444v2.0284h-0.27444v-0.96597h-0.99722v0.96597h-0.27444z"/>
    <path d="m24.369 288.45v0.12227h-1.1494q0.0163 0.25814 0.15488 0.394 0.13994 0.1345 0.38856 0.1345 0.14401 0 0.27852-0.0353 0.13586-0.0353 0.269-0.10598v0.2364q-0.1345 0.0571-0.2758 0.087t-0.28667 0.0299q-0.36411 0-0.57741-0.21194-0.21194-0.21194-0.21194-0.57333 0-0.37362 0.20107-0.59236 0.20243-0.22009 0.5448-0.22009 0.30704 0 0.48502 0.19836 0.17934 0.19699 0.17934 0.53665zm-0.24998-0.0734q-0.0027-0.20515-0.11548-0.32742-0.11141-0.12228-0.29618-0.12228-0.20922 0-0.33558 0.1182-0.12499 0.1182-0.14401 0.33286z"/>
    <path d="m25.661 287.98q-0.04212-0.0245-0.09239-0.0353-0.04891-0.0122-0.10869-0.0122-0.21194 0-0.32607 0.13858-0.11276 0.13722-0.11276 0.39535v0.80158h-0.25134v-1.5216h0.25134v0.2364q0.0788-0.13858 0.20515-0.20515 0.12635-0.0679 0.30705-0.0679 0.02581 0 0.05706 4e-3 0.03125 3e-3 0.06929 0.01z"/>
    <path d="m27.167 288.45v0.12227h-1.1494q0.0163 0.25814 0.15488 0.394 0.13994 0.1345 0.38856 0.1345 0.14401 0 0.27852-0.0353 0.13586-0.0353 0.269-0.10598v0.2364q-0.1345 0.0571-0.2758 0.087-0.1413 0.0299-0.28667 0.0299-0.36411 0-0.57741-0.21194-0.21194-0.21194-0.21194-0.57333 0-0.37362 0.20107-0.59236 0.20243-0.22009 0.5448-0.22009 0.30704 0 0.48502 0.19836 0.17934 0.19699 0.17934 0.53665zm-0.24998-0.0734q-0.0027-0.20515-0.11548-0.32742-0.11141-0.12228-0.29618-0.12228-0.20922 0-0.33558 0.1182-0.12499 0.1182-0.14401 0.33286z"/>
   </g>
   <g fill="#b3b3b3" aria-label="+">
    <path d="m17.036 273.15v3.3906h3.3906v1.0348h-3.3906v3.3906h-1.0227v-3.3906h-3.3906v-1.0348h3.3906v-3.3906z" fill="#b3b3b3" stroke-width=".31167"/>
   </g>
  </g>
  <path d="m23.564 277.11a7.0745 7.0745 0 0 1-7.0745 7.0745 7.0745 7.0745 0 0 1-7.0745-7.0745 7.0745 7.0745 0 0 1 7.0745-7.0745 7.0745 7.0745 0 0 1 7.0745 7.0745z" fill="none" stroke="#b3b3b3" stroke-dasharray="2.40650585, 0.60162646" stroke-width=".60163"/>
 </g>
</svg>
